# Blender v2.79 (sub 0) OBJ File: ''
# www.blender.org
mtllib Muzzle.mtl
o Cube.001_Cube.002
v -1.000000 -0.054048 0.054048
v -1.000000 0.054048 0.054048
v -1.000000 -0.054048 -0.054048
v -1.000000 0.054048 -0.054048
v 1.000000 -1.000000 1.000000
v 1.000000 1.000000 1.000000
v 1.000000 -1.000000 -1.000000
v 1.000000 1.000000 -1.000000
vt 0.485524 0.514043
vt 0.517981 0.517028
vt 0.987333 0.975072
vt 0.035601 0.975072
vt 0.012396 0.023625
vt 0.964125 0.023627
vt 0.514205 0.484654
vt 0.481747 0.481670
vn -0.4276 0.0000 -0.9040
vn -0.4276 0.0000 0.9040
vn -0.4276 -0.9040 0.0000
vn -0.4276 0.9040 0.0000
usemtl None
s off
f 3/1/1 4/2/1 8/3/1 7/4/1
f 5/5/2 6/6/2 2/7/2 1/8/2
f 3/1/3 7/4/3 5/5/3 1/8/3
f 8/3/4 4/2/4 2/7/4 6/6/4
