# Blender v2.79 (sub 0) OBJ File: ''
# www.blender.org
mtllib ProjectileTut.mtl
o Cube
v -1.000000 -1.000000 1.000000
v -1.000000 1.000000 1.000000
v -1.000000 -1.000000 -1.000000
v -1.000000 1.000000 -1.000000
v 1.000000 -1.000000 1.000000
v 1.000000 1.000000 1.000000
v 1.000000 -1.000000 -1.000000
v 1.000000 1.000000 -1.000000
v 3.501941 -0.000374 -0.000000
v -3.505861 -0.000000 0.000000
vt 0.392841 0.672219
vt 0.289528 0.943502
vt 0.019234 0.486431
vt 0.589024 0.669479
vt 0.669977 0.983126
vt 0.569164 0.493400
vt 0.593490 0.317873
vt 0.984870 0.498659
vt 0.405349 0.491323
vt 0.397429 0.310164
vt 0.301015 0.036349
vt 0.682349 0.006364
vn -0.3706 0.0000 -0.9288
vn 0.0000 0.0000 -1.0000
vn 0.3711 0.0000 0.9286
vn 0.0000 0.0000 1.0000
vn 0.0000 -1.0000 0.0000
vn 0.0000 1.0000 0.0000
vn 0.3710 -0.9286 0.0000
vn 0.3713 0.9285 0.0000
vn 0.3711 0.0000 -0.9286
vn -0.3706 0.0000 0.9288
vn -0.3706 0.9288 0.0000
vn -0.3706 -0.9288 0.0000
usemtl None
s off
f 4/1/1 3/2/1 10/3/1
f 3/2/2 4/1/2 8/4/2 7/5/2
f 6/6/3 5/7/3 9/8/3
f 5/7/4 6/6/4 2/9/4 1/10/4
f 3/11/5 7/12/5 5/7/5 1/10/5
f 8/4/6 4/1/6 2/9/6 6/6/6
f 5/7/7 7/12/7 9/8/7
f 8/4/8 6/6/8 9/8/8
f 7/5/9 8/4/9 9/8/9
f 1/10/10 2/9/10 10/3/10
f 2/9/11 4/1/11 10/3/11
f 3/11/12 1/10/12 10/3/12
